# xmcd
#
# Track frame offsets: 
#        150
#        14754
#        27454
#        41774
#        55996
#        66291
#        78554
#        91169
#        102689
#        115136
#        129174
#        139961
#        155784
#        168364
#        180024
#        195074
#        206026
#        221001
#
# Disc length: 3106 seconds
#
# Revision: 2
# Processed by: cddbd v1.5.2PL0 Copyright (c) Steve Scherf et al.
# Submitted via: ExactAudioCopy v0.95b4
#
DISCID=000c2012
DTITLE=Benny Goodman - The Essential Benny Goodman - CD 1
DYEAR=2003
DGENRE=Jazz
TTITLE0=Stealin' Apples
TTITLE1=Rose Room
TTITLE2=Memories of You
TTITLE3=Limehouse Blues
TTITLE4=If I Could Be With You
TTITLE5=Bach Goes To Town
TTITLE6=Nobody's Sweetheart
TTITLE7=Changes
TTITLE8=He Ain't Got Rhythm
TTITLE9=Sent For You Yesterday, And Here You Come Today
TTITLE10=Sing Me A Swing Song (And Let Me Dance)
TTITLE11=Japanese Sandman
TTITLE12=Make Believe
TTITLE13=Ti-pi-tin
TTITLE14=Don't Be That Way
TTITLE15=You're Dangerous
TTITLE16=Down South Camp Meeting
TTITLE17=Sandman
EXTD=
EXTT0=
EXTT1=
EXTT2=
EXTT3=
EXTT4=
EXTT5=
EXTT6=
EXTT7=
EXTT8=
EXTT9=
EXTT10=
EXTT11=
EXTT12=
EXTT13=
EXTT14=
EXTT15=
EXTT16=
EXTT17=
PLAYORDER=
